<svg xmlns="http://www.w3.org/2000/svg" viewBox="0 0 627.72 708"><defs><style>.cls-1{fill:#e76f51;}</style></defs><g id="Layer_2" data-name="Layer 2"><g id="rough"><rect class="cls-1" y="18.38" width="147.97" height="582.69"/><polygon class="cls-1" points="322.91 0 217.66 147.97 0 147.97 0 0 322.91 0"/><polygon class="cls-1" points="147.97 708 0 602.75 0 385.09 147.97 385.09 147.97 708"/><polygon class="cls-1" points="479.75 708 627.72 602.75 627.72 385.09 479.75 385.09 479.75 708"/><rect class="cls-1" x="479.75" y="18.38" width="147.97" height="582.69" transform="translate(1107.47 619.45) rotate(-180)"/><polygon class="cls-1" points="304.81 147.97 410.06 0 627.72 0 627.72 147.97 304.81 147.97"/><polygon class="cls-1" points="286.71 635.86 173 578.99 173 461.37 286.71 461.37 286.71 635.86"/><polygon class="cls-1" points="173 218.87 286.71 275.74 286.71 393.36 173 393.36 173 218.87"/><rect class="cls-1" x="173" y="283.99" width="113.71" height="234.36"/><polygon class="cls-1" points="381.45 588 312.64 650.93 172.3 576.79 241.1 513.86 381.45 588"/><polygon class="cls-1" points="339.6 635.86 453.32 578.99 453.32 461.37 339.6 461.37 339.6 635.86"/><polygon class="cls-1" points="453.32 218.87 339.6 275.74 339.6 393.36 453.32 393.36 453.32 218.87"/><rect class="cls-1" x="339.6" y="283.99" width="113.71" height="234.36" transform="translate(792.92 802.34) rotate(-180)"/><polygon class="cls-1" points="244.87 588 313.68 650.93 454.02 576.79 385.21 513.86 244.87 588"/></g></g></svg>